{"title":"Torment  2010 DVDRiP XViD-LKRG","uid":5949867,"size":740280653,"categoryP":"video","categoryS":"movies","magnet":"?xt=urn:btih:1887b0194324fb7743f50c1b449e3e5759e1c89d&amp;dn=Torment++2010+DVDRiP+XViD-LKRG&amp;tr=udp%3A%2F%2Ftracker.openbittorrent.com%3A80&amp;tr=udp%3A%2F%2Fopen.demonii.com%3A1337&amp;tr=udp%3A%2F%2Ftracker.coppersurfer.tk%3A6969&amp;tr=udp%3A%2F%2Fexodus.desync.com%3A6969","seeders":0,"leechers":1,"uploader":".BONE.","files":54,"time":1289490346,"description":"IMDB : http://www.imdb.com/title/tt1535617/\nGenre : Horror\n\nPlot : A supernatural shockumentary about a demonic presence in a young couple's home in London.\n\nInfomation\nVideo\nID : 0\nFormat : MPEG-4 Visual\nFormat profile : Advanced Simple@L5\nFormat settings, BVOP : Yes\nFormat settings, QPel : No\nFormat settings, GMC : No warppoints\nFormat settings, Matrix : Default (H.263)\nCodec ID : XVID\nCodec ID/Hint : XviD\nDuration : 1h 19mn\nBit rate : 892 Kbps\nWidth : 720 pixels\nHeight : 304 pixels\nDisplay aspect ratio : 2.35:1\nFrame rate : 23.976 fps\nColor space : YUV\nChroma subsampling : 4:2:0\nBit depth : 8 bits\nScan type : Progressive\nBits/(Pixel*Frame) : 0.170\nStream size : 510 MiB (69%)\nWriting library : XviD 1.2.1 (UTC 2008-12-04)\n\nAudio\nID : 1\nFormat : AC-3\nFormat/Info : Audio Coding 3\nMode extension : CM (complete main)\nCodec ID : 2000\nDuration : 1h 19mn\nBit rate mode : Constant\nBit rate : 384 Kbps\nChannel(s) : 6 channels\nChannel positions : Front: L C R, Side: L R, LFE\nSampling rate : 48.0 KHz\nBit depth : 16 bits\nStream size : 220 MiB (30%)\nAlignment : Split accross interleaves\nInterleave, duration : 42 ms (1.00 video frame)\nInterleave, preload duration : 500 ms\n\n\n","torrent":{"xt":"urn:btih:1887b0194324fb7743f50c1b449e3e5759e1c89d","amp;dn":"Torment++2010+DVDRiP+XViD-LKRG","amp;tr":["udp%3A%2F%2Ftracker.openbittorrent.com%3A80","udp%3A%2F%2Fopen.demonii.com%3A1337","udp%3A%2F%2Ftracker.coppersurfer.tk%3A6969","udp%3A%2F%2Fexodus.desync.com%3A6969"],"infoHash":"1887b0194324fb7743f50c1b449e3e5759e1c89d","infoHashBuffer":{"type":"Buffer","data":[24,135,176,25,67,36,251,119,67,245,12,27,68,158,62,87,89,225,200,157]},"announce":[],"urlList":[]}}